<mxfile host="app.diagrams.net" agent="Mozilla/5.0 (Windows NT 10.0; Win64; x64) AppleWebKit/537.36 (KHTML, like Gecko) Chrome/128.0.0.0 Safari/537.36" version="24.7.13">
  <diagram name="Page-1" id="Jy9nRkbc21InMUpkzfm3">
    <mxGraphModel dx="2924" dy="1098" grid="1" gridSize="10" guides="1" tooltips="1" connect="1" arrows="1" fold="1" page="1" pageScale="1" pageWidth="850" pageHeight="1100" math="0" shadow="0">
      <root>
        <mxCell id="0" />
        <mxCell id="1" parent="0" />
        <mxCell id="K6DVSKAwTRSn0MLmY4T6-14" style="edgeStyle=orthogonalEdgeStyle;rounded=0;orthogonalLoop=1;jettySize=auto;html=1;exitX=1;exitY=0;exitDx=0;exitDy=0;entryX=0;entryY=0;entryDx=0;entryDy=0;" edge="1" parent="1" source="K6DVSKAwTRSn0MLmY4T6-1" target="K6DVSKAwTRSn0MLmY4T6-6">
          <mxGeometry relative="1" as="geometry" />
        </mxCell>
        <mxCell id="K6DVSKAwTRSn0MLmY4T6-15" style="edgeStyle=orthogonalEdgeStyle;rounded=0;orthogonalLoop=1;jettySize=auto;html=1;exitX=1;exitY=0.5;exitDx=0;exitDy=0;" edge="1" parent="1" source="K6DVSKAwTRSn0MLmY4T6-1" target="K6DVSKAwTRSn0MLmY4T6-6">
          <mxGeometry relative="1" as="geometry" />
        </mxCell>
        <mxCell id="K6DVSKAwTRSn0MLmY4T6-16" style="edgeStyle=orthogonalEdgeStyle;rounded=0;orthogonalLoop=1;jettySize=auto;html=1;exitX=1;exitY=1;exitDx=0;exitDy=0;entryX=0;entryY=1;entryDx=0;entryDy=0;" edge="1" parent="1" source="K6DVSKAwTRSn0MLmY4T6-1" target="K6DVSKAwTRSn0MLmY4T6-6">
          <mxGeometry relative="1" as="geometry" />
        </mxCell>
        <mxCell id="K6DVSKAwTRSn0MLmY4T6-1" value="User" style="rounded=0;whiteSpace=wrap;html=1;" vertex="1" parent="1">
          <mxGeometry x="-110" y="435" width="170" height="90" as="geometry" />
        </mxCell>
        <mxCell id="K6DVSKAwTRSn0MLmY4T6-19" style="edgeStyle=orthogonalEdgeStyle;rounded=0;orthogonalLoop=1;jettySize=auto;html=1;exitX=0.5;exitY=1;exitDx=0;exitDy=0;entryX=0.5;entryY=1;entryDx=0;entryDy=0;" edge="1" parent="1" source="K6DVSKAwTRSn0MLmY4T6-6" target="K6DVSKAwTRSn0MLmY4T6-1">
          <mxGeometry relative="1" as="geometry" />
        </mxCell>
        <mxCell id="K6DVSKAwTRSn0MLmY4T6-25" style="edgeStyle=orthogonalEdgeStyle;rounded=0;orthogonalLoop=1;jettySize=auto;html=1;exitX=0.5;exitY=1;exitDx=0;exitDy=0;entryX=0.5;entryY=1;entryDx=0;entryDy=0;" edge="1" parent="1" source="K6DVSKAwTRSn0MLmY4T6-6" target="K6DVSKAwTRSn0MLmY4T6-7">
          <mxGeometry relative="1" as="geometry" />
        </mxCell>
        <mxCell id="K6DVSKAwTRSn0MLmY4T6-6" value="The Recipe Hub" style="ellipse;whiteSpace=wrap;html=1;aspect=fixed;" vertex="1" parent="1">
          <mxGeometry x="335" y="390" width="180" height="180" as="geometry" />
        </mxCell>
        <mxCell id="K6DVSKAwTRSn0MLmY4T6-9" style="edgeStyle=orthogonalEdgeStyle;rounded=0;orthogonalLoop=1;jettySize=auto;html=1;exitX=0;exitY=0;exitDx=0;exitDy=0;entryX=1;entryY=0;entryDx=0;entryDy=0;" edge="1" parent="1" source="K6DVSKAwTRSn0MLmY4T6-7" target="K6DVSKAwTRSn0MLmY4T6-6">
          <mxGeometry relative="1" as="geometry" />
        </mxCell>
        <mxCell id="K6DVSKAwTRSn0MLmY4T6-10" style="edgeStyle=orthogonalEdgeStyle;rounded=0;orthogonalLoop=1;jettySize=auto;html=1;exitX=0;exitY=0.5;exitDx=0;exitDy=0;" edge="1" parent="1" source="K6DVSKAwTRSn0MLmY4T6-7" target="K6DVSKAwTRSn0MLmY4T6-6">
          <mxGeometry relative="1" as="geometry" />
        </mxCell>
        <mxCell id="K6DVSKAwTRSn0MLmY4T6-11" style="edgeStyle=orthogonalEdgeStyle;rounded=0;orthogonalLoop=1;jettySize=auto;html=1;exitX=0;exitY=1;exitDx=0;exitDy=0;entryX=1;entryY=1;entryDx=0;entryDy=0;" edge="1" parent="1" source="K6DVSKAwTRSn0MLmY4T6-7" target="K6DVSKAwTRSn0MLmY4T6-6">
          <mxGeometry relative="1" as="geometry" />
        </mxCell>
        <mxCell id="K6DVSKAwTRSn0MLmY4T6-7" value="Admin" style="rounded=0;whiteSpace=wrap;html=1;" vertex="1" parent="1">
          <mxGeometry x="900" y="435" width="170" height="90" as="geometry" />
        </mxCell>
        <mxCell id="K6DVSKAwTRSn0MLmY4T6-17" value="Registration" style="text;html=1;align=center;verticalAlign=middle;resizable=0;points=[];autosize=1;strokeColor=none;fillColor=none;" vertex="1" parent="1">
          <mxGeometry x="145" y="388" width="90" height="30" as="geometry" />
        </mxCell>
        <mxCell id="K6DVSKAwTRSn0MLmY4T6-18" value="Payment" style="text;html=1;align=center;verticalAlign=middle;resizable=0;points=[];autosize=1;strokeColor=none;fillColor=none;" vertex="1" parent="1">
          <mxGeometry x="155" y="518" width="70" height="30" as="geometry" />
        </mxCell>
        <mxCell id="K6DVSKAwTRSn0MLmY4T6-20" value="Recipes/Data" style="text;html=1;align=center;verticalAlign=middle;resizable=0;points=[];autosize=1;strokeColor=none;fillColor=none;" vertex="1" parent="1">
          <mxGeometry x="140" y="588" width="100" height="30" as="geometry" />
        </mxCell>
        <mxCell id="K6DVSKAwTRSn0MLmY4T6-21" value="Browsing/Submitting/Rating" style="text;html=1;align=center;verticalAlign=middle;resizable=0;points=[];autosize=1;strokeColor=none;fillColor=none;" vertex="1" parent="1">
          <mxGeometry x="105" y="458" width="170" height="30" as="geometry" />
        </mxCell>
        <mxCell id="K6DVSKAwTRSn0MLmY4T6-22" value="Recipe Info" style="text;html=1;align=center;verticalAlign=middle;resizable=0;points=[];autosize=1;strokeColor=none;fillColor=none;" vertex="1" parent="1">
          <mxGeometry x="660" y="388" width="80" height="30" as="geometry" />
        </mxCell>
        <mxCell id="K6DVSKAwTRSn0MLmY4T6-23" value="Pricing Info" style="text;html=1;align=center;verticalAlign=middle;resizable=0;points=[];autosize=1;strokeColor=none;fillColor=none;" vertex="1" parent="1">
          <mxGeometry x="650" y="458" width="80" height="30" as="geometry" />
        </mxCell>
        <mxCell id="K6DVSKAwTRSn0MLmY4T6-24" value="Removal of unwanted/inappropriate content" style="text;html=1;align=center;verticalAlign=middle;resizable=0;points=[];autosize=1;strokeColor=none;fillColor=none;" vertex="1" parent="1">
          <mxGeometry x="560" y="518" width="260" height="30" as="geometry" />
        </mxCell>
        <mxCell id="K6DVSKAwTRSn0MLmY4T6-26" value="User Submissions for approval" style="text;html=1;align=center;verticalAlign=middle;resizable=0;points=[];autosize=1;strokeColor=none;fillColor=none;" vertex="1" parent="1">
          <mxGeometry x="605" y="588" width="190" height="30" as="geometry" />
        </mxCell>
      </root>
    </mxGraphModel>
  </diagram>
</mxfile>
